<?xml version="1.0" standalone="no"?>
<!DOCTYPE svg PUBLIC "-//W3C//DTD SVG 20010904//EN"
 "http://www.w3.org/TR/2001/REC-SVG-20010904/DTD/svg10.dtd">
<svg version="1.0" xmlns="http://www.w3.org/2000/svg"
 width="700.000000pt" height="700.000000pt" viewBox="0 0 700.000000 700.000000"
 preserveAspectRatio="xMidYMid meet">
<metadata>
Created by potrace 1.11, written by Peter Selinger 2001-2013
</metadata>
<g transform="translate(0.000000,700.000000) scale(0.100000,-0.100000)"
fill="#000000" stroke="none">
<path d="M3377 6784 c-1 -1 -47 -5 -102 -8 -55 -3 -111 -8 -125 -10 -14 -3
-63 -9 -110 -15 -87 -11 -95 -13 -190 -32 -400 -80 -809 -248 -1160 -477 -328
-215 -667 -547 -889 -872 -384 -561 -587 -1211 -585 -1870 1 -102 12 -322 18
-355 2 -11 7 -45 11 -75 10 -85 14 -109 30 -190 9 -41 17 -84 19 -95 24 -123
101 -367 163 -520 170 -418 403 -768 727 -1090 247 -245 502 -432 816 -597
297 -156 696 -283 1027 -328 46 -6 97 -13 115 -15 185 -25 558 -22 763 5 558
75 1040 263 1500 585 61 42 112 80 115 84 3 3 39 33 80 66 88 70 312 290 396
390 56 66 172 216 187 241 3 6 -13 25 -36 42 l-43 31 -20 -27 c-43 -58 -127
-167 -133 -172 -3 -3 -31 -34 -61 -70 -64 -77 -234 -247 -310 -310 -29 -25
-70 -59 -89 -75 -78 -66 -368 -265 -387 -265 -4 0 -15 -6 -23 -14 -22 -20
-259 -137 -361 -179 -245 -100 -532 -179 -775 -212 -409 -55 -821 -34 -1206
61 -122 30 -379 114 -456 149 -29 14 -56 25 -59 25 -12 0 -271 134 -320 165
-30 19 -57 35 -60 35 -13 0 -249 167 -347 246 -102 82 -284 255 -372 354 -178
200 -339 437 -464 687 -369 736 -438 1601 -189 2381 394 1238 1495 2109 2788
2209 166 12 561 5 613 -12 7 -2 35 -6 64 -9 70 -8 250 -43 348 -67 697 -176
1345 -613 1769 -1191 l49 -67 43 31 c24 17 41 36 37 42 -18 31 -134 180 -191
246 -333 385 -771 702 -1242 897 -241 101 -592 195 -810 218 -36 4 -67 8 -70
10 -13 8 -485 26 -493 19z"/>
<path d="M3377 6244 c-1 -1 -45 -4 -97 -8 -52 -4 -106 -9 -120 -11 -14 -2 -47
-6 -75 -10 -27 -4 -58 -9 -67 -11 -40 -9 -66 -14 -118 -25 -99 -19 -292 -79
-419 -130 -625 -250 -1124 -708 -1432 -1314 -125 -247 -210 -503 -253 -760
-23 -139 -25 -154 -33 -250 -47 -580 99 -1185 405 -1675 54 -86 161 -239 182
-260 3 -3 29 -34 59 -70 107 -128 334 -341 451 -423 292 -206 538 -330 832
-421 107 -34 294 -77 393 -91 23 -3 50 -7 62 -9 123 -24 567 -25 690 -2 10 2
41 7 68 10 85 12 106 16 254 52 194 48 365 110 556 204 131 64 354 195 375
220 3 3 21 17 40 30 115 78 376 322 465 435 22 27 48 58 57 69 9 10 35 44 56
75 l40 56 -43 32 -43 32 -33 -47 c-106 -148 -305 -359 -444 -471 -38 -31 -76
-62 -83 -69 -8 -7 -71 -50 -140 -96 -256 -170 -505 -281 -802 -359 -82 -21
-139 -33 -305 -62 -71 -12 -212 -19 -365 -19 -219 0 -314 9 -516 50 -928 186
-1687 865 -1983 1772 -56 172 -103 400 -118 572 -14 161 -7 494 12 589 2 12 6
42 9 65 3 23 7 49 10 57 3 7 7 30 10 49 14 98 81 320 141 470 197 489 548 918
993 1212 187 123 381 218 592 291 96 32 278 83 340 93 14 3 48 9 75 14 139 26
251 34 450 34 150 0 329 -10 345 -19 3 -1 29 -6 59 -9 73 -9 257 -51 361 -82
521 -159 1000 -492 1323 -921 34 -45 65 -82 70 -83 15 -1 77 45 77 58 0 52
-328 409 -510 555 -424 342 -948 554 -1490 603 -67 6 -357 13 -363 8z"/>
<path d="M3367 5704 c-1 -1 -33 -5 -72 -9 -350 -33 -679 -144 -970 -326 -54
-35 -106 -68 -114 -75 -9 -7 -50 -39 -91 -72 -181 -142 -358 -341 -483 -540
-23 -37 -48 -77 -54 -88 -30 -47 -115 -227 -148 -314 -37 -96 -98 -318 -110
-400 -4 -25 -9 -54 -11 -65 -18 -92 -24 -389 -11 -520 11 -106 27 -206 47
-290 6 -27 14 -59 16 -71 11 -57 100 -297 145 -391 330 -690 1008 -1164 1774
-1240 95 -10 322 -9 420 1 44 5 89 10 100 11 96 10 292 58 434 106 217 75 468
215 656 367 129 105 322 310 390 416 l19 28 -35 29 c-40 33 -55 36 -68 12 -18
-35 -114 -149 -190 -228 -165 -171 -301 -274 -533 -403 -172 -96 -470 -191
-703 -222 -113 -16 -376 -21 -475 -10 -123 14 -174 21 -192 26 -10 3 -30 7
-45 10 -101 18 -291 80 -401 130 -41 19 -75 34 -78 34 -12 0 -199 110 -269
158 -287 198 -492 428 -673 754 -96 172 -191 472 -222 703 -23 165 -21 418 5
595 20 140 99 423 127 455 4 5 8 15 8 23 0 8 26 66 59 131 260 520 707 904
1247 1070 55 17 109 33 120 36 10 2 51 10 89 19 177 37 477 55 630 36 135 -17
154 -20 250 -41 473 -102 926 -393 1212 -776 26 -35 51 -63 56 -63 13 0 77 51
77 62 0 18 -148 194 -240 286 -316 316 -698 521 -1130 606 -69 14 -152 28
-185 32 -51 6 -373 13 -378 8z"/>
</g>
</svg>
